{"title":"Spymate 2006 DVDrip English/Dutch Klam","uid":6186787,"size":1788648648,"categoryP":"video","categoryS":"movies","magnet":"?xt=urn:btih:12c12d34b4e48a07ef30e6d1ee6d04eb6976634b&amp;dn=Spymate+2006+DVDrip+English%2FDutch+Klam&amp;tr=udp%3A%2F%2Ftracker.openbittorrent.com%3A80&amp;tr=udp%3A%2F%2Fopen.demonii.com%3A1337&amp;tr=udp%3A%2F%2Ftracker.coppersurfer.tk%3A6969&amp;tr=udp%3A%2F%2Fexodus.desync.com%3A6969","seeders":1,"leechers":0,"uploader":"Klambake","files":-1,"time":1298133862,"description":"With: Chris Potter, Richard Kind and Emma Roberts\n\nMinkey, a super-spy primate, and his partner Mike were the two best spies in the business. For years, they made every mission possible... But when Mike retired to raise his baby girl, Amelia, he never predicted that life would come full circle. Ten years later, Amelia -- who has invented a revolutionary chemical drill -- is kidnapped and whisked off to Japan by her hero, Dr. Farley, who is planning a highly dangerous experiment that could cause a massive earthquake and destroy the entire world. Mike and Minkey partner up one last time for their most important mission ever: saving Amelia -- and the world -- from the clutches of the evil Dr. Farley.\n\nEnglish or Dutch spoken.\n\nGeneral:\n\nComplete name                    : Spymate\\Spymate.avi\nFormat                           : AVI\nFormat/Info                      : Audio Video Interleave\nFile size                        : 1.67 GiB\nDuration                         : 1h 20mn\nOverall bit rate                 : 2 957 Kbps\n\nVideo:\n\nFormat                           : MPEG-4 Visual\nFormat profile                   : Simple@L3\nFormat settings, BVOP            : No\nFormat settings, QPel            : No\nFormat settings, GMC             : No warppoints\nFormat settings, Matrix          : Default (H.263)\nCodec ID                         : XVID\nCodec ID/Hint                    : XviD\nDuration                         : 1h 20mn\nBit rate                         : 2 044 Kbps\nWidth                            : 704 pixels\nHeight                           : 396 pixels\nDisplay aspect ratio             : 16:9\nFrame rate                       : 25.000 fps\nColor space                      : YUV\nChroma subsampling               : 4:2:0\nBit depth                        : 8 bits\nScan type                        : Progressive\nBits/(Pixel*Frame)               : 0.293\nStream size                      : 1.15 GiB (69%)\nWriting library                  : XviD 1.1.2 (UTC 2006-11-01)\n\nAudio 1:\n\nFormat                           : AC-3\nFormat/Info                      : Audio Coding 3\nMode extension                   : CM (complete main)\nCodec ID                         : 2000\nDuration                         : 1h 20mn\nBit rate mode                    : Constant\nBit rate                         : 448 Kbps\nChannel(s)                       : 6 channels\nChannel positions                : Front: L C R, Side: L R, LFE\nSampling rate                    : 48.0 KHz\nBit depth                        : 16 bits\nStream size                      : 258 MiB (15%)\nAlignment                        : Aligned on interleaves\nInterleave, duration             : 32 ms (0.80 video frame)\n\nAudio 2:\n\nFormat                           : AC-3\nFormat/Info                      : Audio Coding 3\nMode extension                   : CM (complete main)\nCodec ID                         : 2000\nDuration                         : 1h 20mn\nBit rate mode                    : Constant\nBit rate                         : 448 Kbps\nChannel(s)                       : 6 channels\nChannel positions                : Front: L C R, Side: L R, LFE\nSampling rate                    : 48.0 KHz\nBit depth                        : 16 bits\nStream size                      : 258 MiB (15%)\nAlignment                        : Aligned on interleaves\nInterleave, duration             : 32 ms (0.80 video frame)\n","torrent":{"xt":"urn:btih:12c12d34b4e48a07ef30e6d1ee6d04eb6976634b","amp;dn":"Spymate+2006+DVDrip+English%2FDutch+Klam","amp;tr":["udp%3A%2F%2Ftracker.openbittorrent.com%3A80","udp%3A%2F%2Fopen.demonii.com%3A1337","udp%3A%2F%2Ftracker.coppersurfer.tk%3A6969","udp%3A%2F%2Fexodus.desync.com%3A6969"],"infoHash":"12c12d34b4e48a07ef30e6d1ee6d04eb6976634b","infoHashBuffer":{"type":"Buffer","data":[18,193,45,52,180,228,138,7,239,48,230,209,238,109,4,235,105,118,99,75]},"announce":[],"urlList":[]}}